<mxfile host="app.diagrams.net" agent="Mozilla/5.0 (Windows NT 10.0; Win64; x64) AppleWebKit/537.36 (KHTML, like Gecko) Chrome/138.0.0.0 Safari/537.36" version="28.0.9">
  <diagram name="Process Flow Diagram (Fixed Arrows)" id="0">
    <mxGraphModel dx="2527" dy="523" grid="1" gridSize="10" guides="1" tooltips="1" connect="1" arrows="1" fold="1" page="1" pageScale="1" pageWidth="1700" pageHeight="1200" math="0" shadow="0">
      <root>
        <mxCell id="0" />
        <mxCell id="1" parent="0" />
        <mxCell id="3" value="Frontend&#xa;(HTML/CSS/JS + Chart.js)" style="rounded=1;whiteSpace=wrap;html=1;glass=0;arcSize=11;" parent="1" vertex="1">
          <mxGeometry x="-1121" y="300" width="220" height="70" as="geometry" />
        </mxCell>
        <mxCell id="4" value="WebSocket Client" style="rounded=1;whiteSpace=wrap;html=1;glass=0;" parent="1" vertex="1">
          <mxGeometry x="-1086" y="150" width="150" height="50" as="geometry" />
        </mxCell>
        <mxCell id="DveDVRBoyBi0ZSMXzPuG-122" style="edgeStyle=orthogonalEdgeStyle;rounded=0;orthogonalLoop=1;jettySize=auto;html=1;exitX=0;exitY=0.5;exitDx=0;exitDy=0;entryX=1;entryY=0.5;entryDx=0;entryDy=0;fillColor=#0050ef;strokeColor=light-dark(#001DBC, #54aaf9);" parent="1" source="6" target="7" edge="1">
          <mxGeometry relative="1" as="geometry" />
        </mxCell>
        <mxCell id="6" value="Simulation Engine" style="rounded=1;whiteSpace=wrap;html=1;glass=0;" parent="1" vertex="1">
          <mxGeometry x="-847" y="820" width="180" height="60" as="geometry" />
        </mxCell>
        <mxCell id="7" value="Database&#xa;(SQLite / InfluxDB)" style="rounded=1;whiteSpace=wrap;html=1;glass=0;" parent="1" vertex="1">
          <mxGeometry x="-1062" y="820" width="150" height="60" as="geometry" />
        </mxCell>
        <mxCell id="8" value="Client A" style="rounded=1;whiteSpace=wrap;html=1;glass=0;fillColor=#60a917;fontColor=#ffffff;strokeColor=#2D7600;" parent="1" vertex="1">
          <mxGeometry x="-1132" y="625" width="80" height="25" as="geometry" />
        </mxCell>
        <mxCell id="9" value="Client B" style="rounded=1;whiteSpace=wrap;html=1;glass=0;fillColor=#60a917;fontColor=#ffffff;strokeColor=#2D7600;" parent="1" vertex="1">
          <mxGeometry x="-1132" y="660" width="80" height="25" as="geometry" />
        </mxCell>
        <mxCell id="10" value="Machine A" style="rounded=1;whiteSpace=wrap;html=1;glass=0;" parent="1" vertex="1">
          <mxGeometry x="-552" y="827.5" width="110" height="45" as="geometry" />
        </mxCell>
        <mxCell id="11" value="Buffer" style="rounded=1;whiteSpace=wrap;html=1;glass=0;" parent="1" vertex="1">
          <mxGeometry x="-547" y="735" width="100" height="45" as="geometry" />
        </mxCell>
        <mxCell id="12" value="Machine B" style="rounded=1;whiteSpace=wrap;html=1;glass=0;" parent="1" vertex="1">
          <mxGeometry x="-552" y="650" width="110" height="45" as="geometry" />
        </mxCell>
        <mxCell id="DveDVRBoyBi0ZSMXzPuG-123" style="edgeStyle=orthogonalEdgeStyle;rounded=0;orthogonalLoop=1;jettySize=auto;html=1;exitX=0.5;exitY=0;exitDx=0;exitDy=0;entryX=0.5;entryY=1;entryDx=0;entryDy=0;strokeColor=light-dark(#001DBC, #4e9ce4);" parent="1" source="13" target="14" edge="1">
          <mxGeometry relative="1" as="geometry" />
        </mxCell>
        <mxCell id="13" value="QC" style="rounded=1;whiteSpace=wrap;html=1;glass=0;" parent="1" vertex="1">
          <mxGeometry x="-532" y="560" width="70" height="45" as="geometry" />
        </mxCell>
        <mxCell id="14" value="Done" style="rounded=1;whiteSpace=wrap;html=1;glass=0;" parent="1" vertex="1">
          <mxGeometry x="-542" y="470" width="90" height="45" as="geometry" />
        </mxCell>
        <mxCell id="100" value="User Action" style="edgeStyle=orthogonalEdgeStyle;rounded=0;orthogonalLoop=1;jettySize=auto;html=1;strokeColor=#ff9900;endArrow=classic;entryX=0;entryY=0.5;entryDx=0;entryDy=0;" parent="1" source="DveDVRBoyBi0ZSMXzPuG-114" target="3" edge="1">
          <mxGeometry relative="1" as="geometry">
            <mxPoint as="offset" />
            <mxPoint x="-1097" y="240" as="sourcePoint" />
          </mxGeometry>
        </mxCell>
        <mxCell id="101" value="REST API (Initial State)" style="edgeStyle=orthogonalEdgeStyle;rounded=0;orthogonalLoop=1;jettySize=auto;html=1;strokeColor=#0066cc;endArrow=classic;entryX=0;entryY=0.5;entryDx=0;entryDy=0;exitX=0.5;exitY=1;exitDx=0;exitDy=0;" parent="1" source="3" target="5" edge="1">
          <mxGeometry relative="1" as="geometry" />
        </mxCell>
        <mxCell id="102" value="Open WS + Send Command" style="edgeStyle=orthogonalEdgeStyle;rounded=0;orthogonalLoop=1;jettySize=auto;html=1;strokeColor=#ff9900;endArrow=classic;" parent="1" source="3" target="4" edge="1">
          <mxGeometry relative="1" as="geometry" />
        </mxCell>
        <mxCell id="103" value="" style="edgeStyle=orthogonalEdgeStyle;rounded=0;orthogonalLoop=1;jettySize=auto;html=1;strokeColor=#ff9900;endArrow=classic;entryX=0.25;entryY=0;entryDx=0;entryDy=0;" parent="1" source="4" target="5" edge="1">
          <mxGeometry relative="1" as="geometry" />
        </mxCell>
        <mxCell id="104" value="Process Command" style="edgeStyle=orthogonalEdgeStyle;rounded=0;orthogonalLoop=1;jettySize=auto;html=1;strokeColor=#0066cc;endArrow=classic;entryX=0.25;entryY=0;entryDx=0;entryDy=0;exitX=0.5;exitY=1;exitDx=0;exitDy=0;" parent="1" source="5" target="6" edge="1">
          <mxGeometry relative="1" as="geometry">
            <mxPoint x="-362" y="90" as="targetPoint" />
            <mxPoint x="-452" y="520" as="sourcePoint" />
          </mxGeometry>
        </mxCell>
        <mxCell id="109" value="Work Items" style="edgeStyle=orthogonalEdgeStyle;rounded=0;orthogonalLoop=1;jettySize=auto;html=1;strokeColor=#0066cc;endArrow=classic;exitX=1;exitY=0.5;exitDx=0;exitDy=0;" parent="1" source="6" target="10" edge="1">
          <mxGeometry relative="1" as="geometry">
            <mxPoint x="-252" y="510" as="sourcePoint" />
          </mxGeometry>
        </mxCell>
        <mxCell id="110" value="" style="edgeStyle=orthogonalEdgeStyle;rounded=0;orthogonalLoop=1;jettySize=auto;html=1;strokeColor=#0066cc;endArrow=classic;exitX=0.5;exitY=0;exitDx=0;exitDy=0;" parent="1" source="10" target="11" edge="1">
          <mxGeometry relative="1" as="geometry" />
        </mxCell>
        <mxCell id="111" value="" style="edgeStyle=orthogonalEdgeStyle;rounded=0;orthogonalLoop=1;jettySize=auto;html=1;strokeColor=#0066cc;endArrow=classic;exitX=0.5;exitY=0;exitDx=0;exitDy=0;" parent="1" source="11" target="12" edge="1">
          <mxGeometry relative="1" as="geometry" />
        </mxCell>
        <mxCell id="112" value="" style="edgeStyle=orthogonalEdgeStyle;rounded=0;orthogonalLoop=1;jettySize=auto;html=1;strokeColor=#0066cc;endArrow=classic;exitX=0.5;exitY=0;exitDx=0;exitDy=0;" parent="1" source="12" target="13" edge="1">
          <mxGeometry relative="1" as="geometry" />
        </mxCell>
        <mxCell id="114" value="Final State Update" style="edgeStyle=orthogonalEdgeStyle;rounded=0;orthogonalLoop=1;jettySize=auto;html=1;strokeColor=#0066cc;endArrow=classic;exitX=0.5;exitY=0;exitDx=0;exitDy=0;entryX=0.75;entryY=0;entryDx=0;entryDy=0;" parent="1" source="14" target="5" edge="1">
          <mxGeometry relative="1" as="geometry">
            <mxPoint x="-102" y="560" as="targetPoint" />
          </mxGeometry>
        </mxCell>
        <mxCell id="DveDVRBoyBi0ZSMXzPuG-118" style="edgeStyle=orthogonalEdgeStyle;rounded=0;orthogonalLoop=1;jettySize=auto;html=1;entryX=1;entryY=0.5;entryDx=0;entryDy=0;exitX=0;exitY=1;exitDx=0;exitDy=0;fillColor=#60a917;strokeColor=#2D7600;" parent="1" source="5" target="8" edge="1">
          <mxGeometry relative="1" as="geometry">
            <mxPoint x="-542" y="690" as="sourcePoint" />
            <Array as="points">
              <mxPoint x="-912" y="670" />
              <mxPoint x="-982" y="670" />
              <mxPoint x="-982" y="638" />
            </Array>
          </mxGeometry>
        </mxCell>
        <mxCell id="DveDVRBoyBi0ZSMXzPuG-119" style="edgeStyle=orthogonalEdgeStyle;rounded=0;orthogonalLoop=1;jettySize=auto;html=1;exitX=0;exitY=1;exitDx=0;exitDy=0;entryX=1;entryY=0.5;entryDx=0;entryDy=0;fillColor=#60a917;strokeColor=#2D7600;" parent="1" source="5" target="9" edge="1">
          <mxGeometry relative="1" as="geometry">
            <Array as="points">
              <mxPoint x="-912" y="670" />
              <mxPoint x="-962" y="670" />
              <mxPoint x="-962" y="673" />
            </Array>
          </mxGeometry>
        </mxCell>
        <mxCell id="DveDVRBoyBi0ZSMXzPuG-120" value="WS Broadcast" style="edgeLabel;html=1;align=center;verticalAlign=middle;resizable=0;points=[];" parent="DveDVRBoyBi0ZSMXzPuG-119" vertex="1" connectable="0">
          <mxGeometry x="-0.5643" y="1" relative="1" as="geometry">
            <mxPoint x="-42" as="offset" />
          </mxGeometry>
        </mxCell>
        <mxCell id="5" value="Backend&#xa;(FastAPI + Uvicorn)" style="rounded=1;whiteSpace=wrap;html=1;glass=0;" parent="1" vertex="1">
          <mxGeometry x="-912" y="560" width="220" height="70" as="geometry" />
        </mxCell>
        <mxCell id="DveDVRBoyBi0ZSMXzPuG-114" value="User" style="sketch=0;outlineConnect=0;fontColor=#232F3E;gradientColor=none;fillColor=#232F3D;strokeColor=none;dashed=0;verticalLabelPosition=bottom;verticalAlign=top;align=center;html=1;fontSize=12;fontStyle=0;aspect=fixed;pointerEvents=1;shape=mxgraph.aws4.user;" parent="1" vertex="1">
          <mxGeometry x="-1360" y="296" width="78" height="78" as="geometry" />
        </mxCell>
      </root>
    </mxGraphModel>
  </diagram>
</mxfile>
